# xmcd
#
# Track frame offsets:
#	150
#	16332
#	29295
#	46570
#	69855
#	83102
#	98082
#	111870
#	125765
#	140270
#	158972
#	173795
#
# Disc length: 2473 seconds
#
# Revision: 2
# Processed by: cddbd v1.4PL0 Copyright (c) Steve Scherf et al.
# Submitted via: EZCDDA 4.3.2
#
DISCID=8f09a70c
DTITLE=MERMELADA - EL Nº1
DYEAR=1900
DGENRE=
TTITLE0=EL GATO
TTITLE1=BÉSAME O DÉJAME
TTITLE2=DIME
TTITLE3=VOLVER A CREER
TTITLE4=SÓLO CALOR
TTITLE5=SÉ
TTITLE6=EL Nº1
TTITLE7=SIN DEUDAS
TTITLE8=EL JUEGO TERMINÓ
TTITLE9=SUEÑOS ROTOS
TTITLE10=EL VIEJO TREN
TTITLE11=COGE EL TREN (EN DIRECTO)
EXTD=
EXTT0=
EXTT1=
EXTT2=
EXTT3=
EXTT4=
EXTT5=
EXTT6=
EXTT7=
EXTT8=
EXTT9=
EXTT10=
EXTT11=
PLAYORDER=
